<svg id="Layer_1" data-name="Layer 1" xmlns="http://www.w3.org/2000/svg" viewBox="0 0 111.68 146.17"><defs><style>.cls-1{fill:#ff8397;}.cls-2{fill:#fff;}.cls-3{fill:#174877;}</style></defs><path class="cls-1" d="M130.81,59.67c0,28.28-47,81.26-54.75,89.84a1.45,1.45,0,0,1-2.17,0C66.1,140.93,19.14,88,19.14,59.67a55.84,55.84,0,1,1,111.67,0Z" transform="translate(-19.14 -3.83)"/><circle class="cls-2" cx="55.84" cy="53.83" r="41.39"/><path class="cls-3" d="M76.11,31.22a1.15,1.15,0,0,0-1.46,0L45.91,55.38v0h7.41a1.14,1.14,0,0,1,1.14,1.14V82.44a1.14,1.14,0,0,0,1.14,1.14H66.78a1.14,1.14,0,0,0,1.14-1.14V65.2a1.14,1.14,0,0,1,1.13-1.13H81.72a1.14,1.14,0,0,1,1.14,1.13V82.44A1.14,1.14,0,0,0,84,83.58H95.18a1.14,1.14,0,0,0,1.14-1.14V56.57a1.13,1.13,0,0,1,1.13-1.14h7.42v0Z" transform="translate(-19.14 -3.83)"/></svg>